<?xml version="1.0" standalone="no"?>
<!DOCTYPE svg PUBLIC "-//W3C//DTD SVG 20010904//EN"
 "http://www.w3.org/TR/2001/REC-SVG-20010904/DTD/svg10.dtd">
<svg version="1.0" xmlns="http://www.w3.org/2000/svg"
 width="180.000000pt" height="180.000000pt" viewBox="0 0 180.000000 180.000000"
 preserveAspectRatio="xMidYMid meet">
<metadata>
Created by potrace 1.10, written by Peter Selinger 2001-2011
</metadata>
<g transform="translate(0.000000,180.000000) scale(0.100000,-0.100000)"
fill="#000000" stroke="none">
<path d="M80 1767 c-43 -28 -72 -78 -68 -114 3 -27 4 -26 31 20 18 31 46 59
78 78 27 17 49 33 49 35 0 13 -62 1 -90 -19z"/>
<path d="M1630 1786 c0 -2 20 -17 45 -33 26 -16 60 -50 78 -78 31 -48 32 -49
35 -22 7 57 -69 137 -129 137 -16 0 -29 -2 -29 -4z"/>
<path d="M447 1466 c-43 -16 -62 -37 -72 -81 -13 -57 -16 -824 -3 -928 16
-138 15 -137 214 -137 91 0 163 5 177 11 36 16 47 50 47 138 0 43 3 81 6 84 8
8 55 -56 87 -119 51 -100 90 -114 317 -114 l168 0 26 31 c14 17 26 39 26 50 0
25 -28 80 -86 170 -24 38 -44 72 -44 75 0 3 -15 29 -34 57 -18 29 -55 89 -81
135 l-47 83 34 57 c19 31 51 86 72 122 20 36 63 108 96 160 32 52 59 107 59
122 1 15 -11 40 -25 58 l-27 31 -193 -3 -193 -3 -30 -29 c-17 -16 -36 -45 -42
-65 -7 -19 -28 -58 -48 -85 l-36 -51 -5 93 c-4 81 -8 94 -30 116 -23 22 -35
25 -160 30 -103 5 -144 3 -173 -8z m234 -29 c99 -3 98 -1 95 -182 -2 -85 1
-155 6 -155 4 0 8 4 8 8 0 5 31 60 69 123 37 63 72 125 76 139 12 41 35 59 84
67 25 4 51 6 56 4 6 -2 71 -2 146 -1 l136 1 13 -31 c15 -35 13 -39 -50 -135
-22 -33 -43 -67 -47 -75 -4 -8 -19 -33 -34 -55 -14 -22 -35 -58 -45 -80 -21
-45 -57 -103 -78 -125 -12 -13 -9 -23 25 -80 21 -36 48 -79 59 -96 11 -16 20
-35 20 -41 0 -5 9 -18 19 -27 11 -10 25 -32 32 -49 7 -18 34 -63 60 -102 74
-112 82 -133 69 -165 l-11 -28 -167 3 c-213 3 -245 12 -277 75 -13 25 -42 74
-64 108 -23 33 -41 63 -41 66 0 3 -12 31 -27 63 l-28 58 -5 -177 c-3 -97 -8
-179 -11 -182 -8 -8 -306 -16 -335 -9 -19 4 -22 14 -29 86 -9 102 -9 839 0
918 6 54 9 59 38 68 58 18 72 20 122 14 28 -2 80 -5 116 -6z"/>
<path d="M1060 1410 c-15 -29 -12 -46 5 -24 8 11 15 14 15 7 0 -21 20 -15 20
6 0 27 -27 34 -40 11z"/>
<path d="M1124 1407 c-3 -8 -4 -20 -2 -28 2 -9 -6 -14 -26 -14 -17 0 -31 -6
-33 -15 -3 -11 -2 -11 4 -3 6 8 14 9 23 3 10 -7 11 -10 3 -10 -21 0 -15 -20 9
-29 14 -5 17 -10 10 -15 -20 -12 -13 -36 9 -36 15 0 19 -5 15 -15 -9 -25 39
-42 61 -23 10 9 23 13 30 11 6 -2 14 1 18 7 5 7 -7 10 -35 8 -23 -1 -44 3 -48
8 -4 6 -15 13 -25 17 -15 6 -16 10 -5 29 6 13 11 33 9 46 -3 26 27 42 39 21 5
-7 12 -10 16 -6 4 4 13 2 20 -4 8 -7 14 -7 19 1 3 5 2 10 -3 10 -6 0 -9 8 -8
17 1 12 -7 18 -24 19 -14 0 -35 4 -48 8 -15 5 -24 3 -28 -7z"/>
<path d="M999 1359 c24 -22 37 -20 28 6 -4 8 -16 15 -29 15 l-22 0 23 -21z"/>
<path d="M943 1338 c-12 -19 -33 -60 -33 -64 0 -2 7 -4 15 -4 8 0 15 -5 15
-11 0 -5 5 -7 10 -4 6 4 4 13 -6 22 -15 15 -15 17 4 24 15 6 19 14 15 28 -6
24 -9 25 -20 9z"/>
<path d="M1040 1299 c0 -5 -10 -9 -22 -7 -15 2 -23 -2 -23 -12 0 -21 -46 -42
-62 -28 -17 14 -16 -2 2 -25 7 -11 11 -25 8 -33 -6 -16 22 -20 32 -4 3 5 13 7
23 4 16 -5 16 -5 0 8 -10 9 -13 19 -8 27 5 9 9 9 11 2 2 -6 14 -8 27 -4 21 5
22 7 6 24 -15 17 -15 18 10 25 28 7 36 34 11 34 -8 0 -15 -5 -15 -11z"/>
<path d="M1070 1230 c7 -14 7 -20 0 -20 -5 0 -10 -7 -10 -15 0 -23 17 -18 24
8 9 35 7 47 -9 47 -13 0 -14 -4 -5 -20z"/>
<path d="M884 1218 c-4 -6 -2 -14 4 -16 7 -2 10 -8 6 -13 -3 -5 2 -9 11 -9 9
0 13 -5 10 -10 -4 -6 -11 -8 -16 -5 -5 4 -9 1 -9 -4 0 -6 9 -11 21 -11 16 0
20 5 17 28 -3 25 -19 52 -32 52 -3 0 -8 -5 -12 -12z"/>
<path d="M1101 1223 c5 -30 -4 -53 -22 -58 -13 -5 -18 -12 -14 -22 4 -13 3
-14 -10 -3 -13 11 -14 10 -9 -4 7 -17 14 -19 38 -10 9 3 13 10 10 15 -3 5 1 7
8 4 7 -3 19 7 26 22 8 18 9 29 2 31 -5 2 -10 10 -10 18 0 8 -4 14 -10 14 -5 0
-9 -3 -9 -7z"/>
<path d="M1150 1178 c0 -7 5 -20 11 -28 8 -11 12 -12 16 -2 2 6 11 12 19 12 8
0 14 -6 14 -12 0 -9 4 -8 10 2 16 25 11 31 -20 25 -17 -3 -30 -1 -30 5 0 5 -4
10 -10 10 -5 0 -10 -6 -10 -12z"/>
<path d="M657 1137 c-9 -5 -7 -10 6 -18 18 -11 24 -49 6 -49 -5 0 -7 -5 -4
-10 10 -16 23 -3 45 43 11 22 20 41 20 41 0 5 -65 -1 -73 -7z"/>
<path d="M847 1143 c-13 -13 -7 -33 11 -33 16 -1 16 -2 0 -13 -17 -13 -28 -43
-16 -42 4 0 13 -8 20 -18 12 -15 16 -16 32 -4 23 17 12 40 -15 32 -21 -7 -25
5 -7 23 8 8 8 15 -1 26 -7 8 -10 20 -6 26 7 11 -8 14 -18 3z"/>
<path d="M504 1129 c-8 -14 11 -33 25 -25 16 10 13 36 -3 36 -8 0 -18 -5 -22
-11z"/>
<path d="M1080 1105 c0 -11 -7 -14 -24 -9 -21 5 -23 3 -18 -23 3 -15 7 -22 9
-15 3 6 13 12 24 12 10 0 19 5 19 12 0 8 3 8 9 3 5 -6 6 -26 2 -45 -4 -22 -10
-30 -14 -22 -13 20 -23 14 -22 -14 0 -16 9 -32 22 -41 20 -14 21 -12 32 36 6
28 8 57 5 66 -4 9 -1 15 8 15 8 0 25 9 38 20 17 15 19 20 8 20 -9 0 -19 -7
-22 -16 -6 -15 -8 -15 -31 0 -31 20 -45 20 -45 1z"/>
<path d="M530 1087 c-16 -26 -5 -33 26 -17 22 12 27 12 34 0 6 -8 10 -25 10
-38 0 -23 0 -23 24 -5 24 19 32 58 13 70 -6 4 -30 7 -53 8 -31 0 -45 -5 -54
-18z"/>
<path d="M750 1071 c0 -21 13 -41 26 -41 19 0 18 -26 -2 -34 -10 -4 -14 -14
-11 -26 3 -11 2 -20 -2 -20 -4 0 -8 -6 -8 -14 0 -8 6 -12 14 -9 7 3 13 0 13
-6 0 -6 -4 -11 -10 -11 -5 0 -10 -4 -10 -10 0 -5 9 -10 20 -10 11 0 23 -7 26
-15 4 -8 10 -15 15 -15 5 0 9 7 9 15 0 8 -7 15 -15 15 -16 0 -20 12 -8 24 13
13 12 39 -3 54 -13 12 -13 16 1 26 14 10 15 16 4 38 -7 18 -17 24 -27 21 -9
-4 -13 -2 -9 4 4 6 0 13 -8 17 -8 3 -15 1 -15 -3z"/>
<path d="M966 1068 c-11 -25 2 -42 20 -27 8 6 14 17 14 23 0 6 -4 5 -9 -3 -7
-11 -10 -10 -13 5 -4 17 -6 17 -12 2z"/>
<path d="M723 1025 c-7 -20 2 -29 21 -22 9 4 13 13 10 22 -8 19 -23 19 -31 0z"/>
<path d="M960 1013 c-8 -3 -18 -12 -23 -19 -6 -10 -13 -9 -37 4 -28 16 -30 16
-50 -5 -24 -26 -26 -43 -5 -43 8 0 15 5 15 11 0 6 6 16 13 24 11 11 16 10 25
-6 9 -14 9 -19 1 -19 -8 0 -7 -6 2 -17 12 -15 12 -16 -3 -11 -16 7 -29 -10
-33 -44 -2 -23 22 -11 29 15 6 20 7 21 17 4 16 -27 28 -11 22 32 -5 35 -3 39
21 45 14 3 26 13 26 21 0 8 -1 15 -2 14 -2 0 -10 -3 -18 -6z"/>
<path d="M1023 1005 c-19 -21 -16 -34 7 -28 11 3 20 14 20 24 0 22 -10 24 -27
4z"/>
<path d="M662 997 c-18 -23 -21 -45 -7 -51 8 -3 17 3 20 15 4 10 11 19 16 19
14 0 11 17 -5 23 -8 3 -19 0 -24 -6z"/>
<path d="M533 988 c3 -10 0 -19 -9 -22 -15 -6 -11 -26 5 -26 14 0 21 44 9 55
-8 7 -9 5 -5 -7z"/>
<path d="M700 959 c-11 -26 -11 -32 1 -40 21 -13 29 -11 29 9 0 9 3 27 6 40
10 35 -21 28 -36 -9z"/>
<path d="M580 970 c0 -14 22 -60 29 -60 4 0 7 9 8 20 1 11 -2 20 -8 20 -5 0
-9 7 -9 15 0 8 -4 15 -10 15 -5 0 -10 -4 -10 -10z"/>
<path d="M967 919 c4 -14 11 -17 29 -13 20 5 23 3 18 -11 -5 -13 -3 -16 7 -13
7 2 22 -4 33 -13 15 -14 23 -16 38 -8 20 11 20 11 0 25 -11 8 -28 11 -37 8
-11 -5 -18 0 -22 15 -3 11 -8 22 -12 22 -49 9 -59 7 -54 -12z"/>
<path d="M670 885 c0 -8 5 -15 10 -15 6 0 8 -11 4 -25 -5 -21 -3 -25 16 -25
19 0 20 2 10 15 -7 9 -10 19 -6 23 4 4 15 -2 23 -13 14 -17 15 -18 9 -2 -3 10
-6 23 -6 28 0 5 -7 9 -15 9 -8 0 -15 5 -15 10 0 6 -7 10 -15 10 -8 0 -15 -7
-15 -15z"/>
<path d="M970 879 c0 -5 -4 -8 -9 -4 -11 6 -61 -15 -61 -27 0 -10 -3 -10 45 6
37 13 60 36 36 36 -6 0 -11 -5 -11 -11z"/>
<path d="M586 853 c9 -36 7 -35 38 -24 17 7 26 7 26 1 0 -6 4 -10 8 -10 4 0 7
12 6 28 -3 39 -3 39 -18 19 -12 -15 -15 -15 -26 -2 -21 26 -41 19 -34 -12z"/>
<path d="M763 863 c-10 -3 -10 -9 -1 -23 16 -25 9 -30 -38 -33 -36 -2 -39 -4
-40 -34 -1 -22 3 -33 12 -33 8 0 14 10 14 24 0 15 7 26 20 29 28 7 60 -3 60
-19 0 -19 20 -28 33 -15 8 8 8 11 -2 11 -8 0 -11 6 -7 15 3 9 0 15 -8 15 -12
0 -13 7 -7 39 1 2 7 -1 14 -5 19 -14 52 -10 52 6 0 8 -8 16 -17 18 -12 2 -18
-3 -18 -14 0 -16 -3 -15 -20 4 -21 23 -26 24 -47 15z"/>
<path d="M976 845 c-13 -10 -16 -20 -11 -32 8 -17 8 -17 12 0 3 10 9 14 16 10
20 -12 49 -14 42 -2 -4 6 -14 8 -22 4 -12 -4 -13 -3 -5 8 7 8 9 17 5 20 -9 10
-15 8 -37 -8z"/>
<path d="M440 826 c-19 -19 -10 -24 37 -20 52 5 66 11 58 25 -8 12 -81 9 -95
-5z"/>
<path d="M1116 815 c5 -11 2 -13 -11 -9 -13 5 -16 3 -13 -7 4 -12 35 -14 47
-3 7 6 -8 34 -18 34 -6 0 -8 -7 -5 -15z"/>
<path d="M860 788 c0 -6 9 -12 20 -15 11 -3 20 -14 20 -24 0 -36 16 -26 17 11
2 37 0 39 -28 38 -16 -1 -29 -5 -29 -10z"/>
<path d="M730 757 c0 -20 -6 -28 -26 -33 -36 -9 -27 -37 15 -42 32 -3 33 -2
27 24 -5 18 -3 30 6 35 10 7 9 12 -4 26 -17 16 -18 16 -18 -10z"/>
<path d="M977 740 c5 -20 23 -26 36 -13 9 8 -12 33 -28 33 -8 0 -11 -8 -8 -20z"/>
<path d="M1100 735 c0 -8 4 -15 9 -15 5 0 4 -11 -2 -24 -8 -16 -23 -27 -46
-31 -25 -5 -31 -9 -21 -15 8 -5 12 -12 8 -15 -3 -3 -13 1 -21 9 -11 12 -16 13
-20 3 -7 -21 4 -45 23 -50 14 -4 20 3 25 30 5 29 9 32 21 23 11 -10 17 -10 29
0 13 11 14 10 9 -4 -3 -9 -11 -16 -17 -16 -6 0 -7 -3 -4 -6 4 -4 14 -1 22 6
14 12 15 10 10 -12 -5 -20 -2 -26 13 -30 17 -5 19 -2 11 30 -4 20 -5 40 -2 45
3 6 -2 16 -13 24 -16 12 -17 15 -4 23 9 6 11 10 3 10 -7 0 -10 7 -7 15 4 9 0
15 -10 15 -9 0 -16 -7 -16 -15z"/>
<path d="M571 729 c-13 -5 -22 -11 -20 -12 2 -1 13 -9 23 -17 17 -13 19 -13
14 0 -3 8 2 20 11 27 19 15 6 16 -28 2z"/>
<path d="M449 726 c-1 -3 -2 -9 -3 -13 -1 -5 -4 -13 -8 -19 -8 -12 -1 -24 14
-24 5 0 8 8 6 18 -2 12 3 16 16 14 11 -2 17 1 14 10 -5 13 -37 25 -39 14z"/>
<path d="M902 698 c-7 -7 -12 -18 -12 -25 0 -11 5 -11 20 -3 18 10 19 8 10
-14 -7 -19 -6 -24 5 -22 8 1 18 5 21 9 4 4 12 7 18 7 6 0 5 -5 -2 -12 -17 -17
-15 -41 3 -34 9 3 15 0 15 -10 0 -8 5 -12 11 -9 7 5 5 13 -5 24 -14 15 -14 19
1 33 15 15 13 18 -21 32 -20 8 -36 20 -36 25 0 15 -13 14 -28 -1z"/>
<path d="M476 674 c-9 -22 -8 -24 9 -24 18 0 20 -16 3 -26 -6 -4 -14 -2 -16 5
-3 9 -8 9 -20 -1 -13 -11 -15 -10 -10 10 4 15 2 22 -5 19 -19 -6 -21 -47 -3
-47 9 0 25 -9 36 -20 11 -11 26 -17 35 -14 8 4 15 2 15 -4 0 -5 -16 -10 -35
-9 -19 1 -35 5 -35 9 0 4 -5 8 -10 8 -7 0 -7 -6 0 -19 7 -14 7 -21 -3 -24 -6
-2 -1 -3 13 -1 44 5 56 -10 31 -37 -23 -25 -15 -44 13 -33 15 6 17 15 13 45
-4 29 -1 39 8 39 8 0 16 -4 20 -10 4 -6 15 -6 30 0 16 6 34 6 50 0 22 -8 25
-7 25 11 0 11 -4 18 -9 14 -5 -3 -12 4 -16 14 -7 22 -35 18 -35 -5 0 -8 -6
-14 -14 -14 -8 0 -13 8 -12 17 0 11 -6 18 -18 18 -11 0 -21 6 -23 13 -3 6 0
12 6 12 17 0 13 31 -6 46 -13 9 -14 13 -5 14 16 0 67 -27 96 -50 17 -14 18
-13 15 9 -3 19 -14 27 -49 37 -60 18 -87 17 -94 -2z"/>
<path d="M848 674 c-7 -6 3 -42 19 -69 9 -15 15 -17 23 -9 9 9 6 17 -10 32
-13 12 -20 27 -17 36 6 16 -4 22 -15 10z"/>
<path d="M642 658 c-16 -16 -15 -28 3 -28 8 0 15 -4 15 -10 0 -5 7 -7 15 -4 8
4 15 14 15 23 0 14 -2 14 -10 1 -8 -13 -10 -13 -10 2 0 22 -14 30 -28 16z"/>
<path d="M725 568 c-29 -16 -29 -16 -16 -32 9 -11 8 -17 -4 -29 -8 -9 -15 -23
-15 -31 0 -10 -6 -13 -17 -10 -17 5 -17 5 0 -6 18 -12 41 -5 32 11 -3 5 1 6 9
3 16 -6 33 36 22 55 -3 5 1 16 9 24 27 27 16 35 -20 15z"/>
<path d="M1006 564 c-8 -22 -6 -23 27 -17 25 5 26 6 10 19 -24 18 -30 17 -37
-2z"/>
<path d="M1252 558 c2 -13 8 -23 13 -23 6 0 11 10 13 23 2 15 -2 22 -13 22
-11 0 -15 -7 -13 -22z"/>
<path d="M641 524 c-8 -9 -22 -13 -35 -10 -27 7 -69 -21 -62 -40 3 -7 1 -16
-3 -18 -5 -3 -8 -17 -8 -31 0 -19 5 -25 21 -26 11 0 30 -3 41 -5 37 -9 116
-10 121 -2 5 8 -5 9 -66 12 -14 1 -24 6 -23 12 2 12 -26 12 -46 0 -7 -5 -17
-4 -23 2 -13 13 11 52 27 45 7 -2 15 2 18 10 3 9 19 18 36 22 21 4 29 12 28
26 -2 23 -7 23 -26 3z"/>
<path d="M934 514 c3 -9 6 -21 6 -28 0 -9 9 -12 25 -8 14 2 25 0 25 -6 0 -15
48 -21 60 -7 13 16 2 25 -32 25 -19 0 -28 5 -28 16 0 10 -6 14 -15 11 -8 -4
-17 -2 -20 3 -10 16 -28 11 -21 -6z"/>
<path d="M1170 516 c0 -8 4 -17 10 -21 5 -3 7 -12 4 -19 -7 -17 12 -30 21 -16
4 6 2 17 -5 25 -8 9 -8 15 0 20 6 3 8 11 5 16 -9 14 -35 11 -35 -5z"/>
<path d="M1290 519 c0 -7 -9 -9 -24 -5 -30 7 -37 -1 -24 -30 11 -24 38 -34 38
-14 0 6 7 10 15 10 9 0 15 9 15 25 0 14 -4 25 -10 25 -5 0 -10 -5 -10 -11z"/>
<path d="M1020 429 c0 -5 -5 -7 -11 -3 -7 4 -10 1 -7 -6 7 -22 48 -20 48 2 0
10 -7 18 -15 18 -8 0 -15 -5 -15 -11z"/>
<path d="M1200 431 c0 -7 12 -13 47 -21 4 -1 9 4 12 11 2 8 -2 10 -12 6 -9 -3
-19 -2 -22 3 -8 12 -25 13 -25 1z"/>
<path d="M10 142 c0 -62 84 -139 142 -130 20 3 16 7 -29 35 -33 20 -61 48 -78
77 -15 26 -29 46 -31 46 -2 0 -4 -13 -4 -28z"/>
<path d="M1747 117 c-20 -31 -41 -57 -45 -57 -5 0 -23 -11 -42 -25 l-34 -25
31 0 c62 0 138 79 131 136 -3 26 -5 24 -41 -29z"/>
</g>
</svg>
